HIERARCHY
ROOT hip
{
  OFFSET 0.0 0.0 0.0
  CHANNELS 6 Xposition Yposition Zposition Zrotation Yrotation Xrotation
  JOINT torso
  {
    OFFSET 0.0 0.0 0.0
    CHANNELS 3 Zrotation Xrotation Yrotation
    JOINT neck
    {
      OFFSET -31.42098999999993 328.8025209999999 74.3554680000002
      CHANNELS 3 Zrotation Xrotation Yrotation
      JOINT head
      {
        OFFSET 3.3519900000001144 303.81732099999994 206.53942900000015
        CHANNELS 3 Zrotation Xrotation Yrotation
        End Site
        {
          OFFSET 0.0 0.0 0.0
        }
      }
    }
    JOINT left_collar
    {
      OFFSET -31.42098999999993 328.8025209999999 74.3554680000002
      CHANNELS 3 Zrotation Xrotation Yrotation
      JOINT left_upper_arm
      {
        OFFSET -124.490479 -8.162841999999841 8.226441000000023
        CHANNELS 3 Zrotation Xrotation Yrotation
        JOINT left_forearm
        {
          OFFSET -253.595764 -1.5758060000000569 105.0729980000001
          CHANNELS 3 Zrotation Xrotation Yrotation
          JOINT left_hand
          {
            OFFSET -269.48803699999996 0.1478270000000066 -55.346191999999974
            CHANNELS 3 Zrotation Xrotation Yrotation
            End Site
            {
              OFFSET 0.0 0.0 0.0
            }
          }
        }
      }
    }
    JOINT right_collar
    {
      OFFSET -31.42098999999993 328.8025209999999 74.3554680000002
      CHANNELS 3 Zrotation Xrotation Yrotation
      JOINT right_upper_arm
      {
        OFFSET 162.02484099999998 0.46441600000002836 2.2303470000001653
        CHANNELS 3 Zrotation Xrotation Yrotation
        JOINT right_forearm
        {
          OFFSET 240.01246700000004 -25.835875999999985 121.34179699999959
          CHANNELS 3 Zrotation Xrotation Yrotation
          JOINT right_hand
          {
            OFFSET 252.48539699999992 18.910399999999868 -67.53466800000001
            CHANNELS 3 Zrotation Xrotation Yrotation
            End Site
            {
              OFFSET 0.0 0.0 0.0
            }
          }
        }
      }
    }
  }
}
MOTION
Frames: 19
Frame Time: 0.01
-300.38776582563275 276.82048844497893 1436.0771055074038 3.576150807319319 -3.8484569436885416 20.956411622288467 0.8175099882272925 5.176715839578725 0.35094144363349883 -4.23872378893734 -10.876697636843689 3.200247609733305 0.0 0.0 0.0 0.7408623098864624 -0.15927083602090114 2.8927800766594496 39.99285109801302 6.244121875664733 27.57111141273971 52.941178360546544 7.076875814296718 -37.412354641609994 0.0 0.0 0.0 -3.816664335800601 0.3512897686143443 9.77351227497959 -53.90739014334214 28.260408320895635 -2.9465550444854745 -35.29573486564802 -2.611527348788339 27.823198896594672 0.0 0.0 0.0
-300.39146571627936 276.80243559420956 1435.99115168783 3.6047402647429636 -3.894719331884057 20.95776955977491 0.7929908818236406 5.210770453587781 0.3589795853077897 -4.24099932613969 -10.869236209001238 3.2017008455141776 0.0 0.0 0.0 0.7384995435242109 -0.1582263105717994 2.876910870012795 39.989900479457845 6.2423963052426945 27.574322877759606 52.94931977373172 7.077053168967101 -37.41020269122064 0.0 0.0 0.0 -3.8386343153730755 0.35269046629127904 9.748153821664685 -53.869368131888066 28.26582240761797 -2.906512472034931 -35.30350674132759 -2.6163142177489234 27.804061182707223 0.0 0.0 0.0
-300.39595380048684 276.7843097258729 1435.9062007043292 3.632981267878887 -3.941326701878266 20.9595784473415 0.7686415603620969 5.244790301540935 0.36696926649595835 -4.24297647556433 -10.861313775576376 3.202923751713574 0.0 0.0 0.0 0.7360514982118597 -0.15716476179247307 2.860747158871881 39.987784255940554 6.240650569508957 27.57797246261241 52.95697509756456 7.077114105925835 -37.407969464251565 0.0 0.0 0.0 -3.8605421892776417 0.3540778033547861 9.722877523038232 -53.831449693053045 28.271166571083125 -2.866621900901524 -35.31935038005499 -2.6295118857369126 27.75092124807239 0.0 0.0 0.0
-300.4017570625582 276.76594757917866 1435.8221149712779 3.660775365917884 -3.988991888821411 20.961891494956863 0.7445358543720716 5.279343631962475 0.37495643300390946 -4.244551853118157 -10.852772007989394 3.2038366338420117 0.0 0.0 0.0 0.7334736651884127 -0.15607387097665237 2.844091228527448 39.98665211622653 6.238880360997402 27.582140304083513 52.964115957947605 7.077089483839459 -37.405724990955385 0.0 0.0 0.0 -3.8822568646289333 0.3554368089755561 9.69761610763419 -53.79399337203764 28.27640686333654 -2.827238571021562 -35.34426709551314 -2.652250510844629 27.659322451403415 0.0 0.0 0.0
-300.40941583284496 276.7471463462755 1435.7387164003294 3.6879900543150432 -4.038316612728043 20.964727097573814 0.7207670452891722 5.314881763631575 0.3829710073509746 -4.2456328464105875 -10.84345245230425 3.204367658135707 0.0 0.0 0.0 0.7307286119444836 -0.15494410390877025 2.8267875651814505 39.9866418058059 6.237082850204398 27.586897007772997 52.97073244718061 7.0770200570903485 -37.40355323365732 0.0 0.0 0.0 -3.903644259646203 0.35675346221302884 9.672339739447155 -53.75733681860931 28.281510064095265 -2.7886999093611076 -35.3791110047636 -2.6855905574307846 27.525187407585165 0.0 0.0 0.0
-300.41947130755403 276.7276660335463 1435.655792079023 3.714456417397569 -4.089755704128254 20.968063354912893 0.6974495044774475 5.351708760168976 0.39102360291476224 -4.24614141836299 -10.833202373924191 3.2044557880194917 0.0 0.0 0.0 0.7277879979119436 -0.15376940718933824 2.808733802845984 39.98787326355258 6.2352567921654884 27.592300638686645 52.97683575861333 7.0769565878382625 -37.401551501165294 0.0 0.0 0.0 -3.9245687482227627 0.3580150922892177 9.647062921168938 -53.72178772847966 28.286444592432918 -2.751316347108153 -35.424539103266014 -2.730493603397543 27.34495700279082 0.0 0.0 0.0
-300.4324536897079 276.7072329148045 1435.5730971283251 3.7399692638608393 -4.143588457750708 20.971834090557078 0.6747189836508088 5.38995837322567 0.3991032743536585 -4.246017356678314 -10.821880583733796 3.204053315841281 0.0 0.0 0.0 0.7246341205442338 -0.152547708554085 2.7898887286490566 39.99044258810752 6.23340236943505 27.59839434041058 52.98246075023749 7.076959696852524 -37.39982936908437 0.0 0.0 0.0 -3.944894627532823 0.3592107105541558 9.621849055126242 -53.687616503035564 28.291181445231405 -2.7153635223818497 -35.48096304253416 -2.7877906886240886 27.115732211191105 0.0 0.0 0.0
-300.4488715088045 276.6855440116496 1435.4903541681135 3.7642900435085345 -4.199898657095291 20.975926619913004 0.6527313693480079 5.429579604134334 0.40717645913380524 -4.245220803253246 -10.80936304261086 3.203127862593639 0.0 0.0 0.0 0.721260892589414 -0.1512811834205834 2.770276765433702 39.994416034238235 6.231520731104969 27.605204787407335 52.98766834786515 7.077099431844058 -37.39850708953198 0.0 0.0 0.0 -3.9644876269939613 0.3603312589882818 9.596812299696243 -53.65505088942627 28.295695124797685 -2.6810761655692006 -35.54850551780587 -2.858147737490444 26.835416677413964 0.0 0.0 0.0
-300.46920268043954 276.6622724939446 1435.4072490315332 3.7871527385396218 -4.258564501274448 20.98018143396597 0.6316597569437514 5.4703319238870165 0.41518722063473523 -4.24373392384302 -10.795548044979398 3.201663737572749 0.0 0.0 0.0 0.7176741717294304 -0.14997626027061392 2.7499884965819392 39.99982427156601 6.229613201472036 27.61274165182775 52.992547681899254 7.077454538822605 -37.39771349146299 0.0 0.0 0.0 -3.983216534998002 0.3613697666799413 9.572116400834503 -53.6242726648251 28.29996452864051 -2.6486437806072214 -35.62696459687718 -2.9420278955650483 26.502857104694463 0.0 0.0 0.0
-300.4938878536461 276.63707385306344 1435.3234226155964 3.808272795193985 -4.319259274071559 20.984393877043026 0.6116897695460888 5.511790805827412 0.42305884795806714 -4.241561614843322 -10.780360787735066 3.1996625768792804 0.0 0.0 0.0 0.7138913888585436 -0.14864335102909934 2.7291769889479114 40.00665716477361 6.227680154182267 27.620998217849625 52.997217836878 7.078111430045321 -37.39758339253466 0.0 0.0 0.0 -4.000955054987262 0.36232141097212384 9.54797023617193 -53.595416251894626 28.303973799005977 -2.618208048065949 -35.7157896289587 -3.0396512021895363 26.11797707282945 0.0 0.0 0.0
-300.52332655818424 276.6095926654937 1435.2384590347076 3.8273589984946073 -4.381463118676995 20.98831780740849 0.5930131460748324 5.553363761419893 0.430696801535754 -4.238731188196204 -10.763757143588572 3.1971432124751726 0.0 0.0 0.0 0.7099404514004659 -0.14729630864835272 2.7080498988741692 40.01485935144269 6.225719575633427 27.629953207785725 53.00182908153139 7.079162851119727 -37.39825456425784 0.0 0.0 0.0 -4.017584000962636 0.3631834835347093 9.52461990939425 -53.568569018902515 28.307713154303933 -2.5898617235514463 -35.814072460787806 -3.150952882254044 25.68189805964769 0.0 0.0 0.0
-300.5578766011075 276.57946973782117 1435.1518705531064 3.8441279934768486 -4.444485715870001 20.99167114345119 0.5758197494140391 5.594316526055158 0.4379929179518226 -4.235291023394923 -10.745726483933101 3.1941407595746263 0.0 0.0 0.0 0.7058579350228779 -0.1459516314081536 2.6868576001632296 40.02432689629749 6.223725369845856 27.63957380716775 53.006563439427396 7.080706259963029 -37.39986431449398 0.0 0.0 0.0 -4.032993906547618 0.3639552647537918 9.502337402858219 -53.54377292760882 28.311179730291283 -2.5636487144649114 -35.92055742176393 -3.2755426335562188 25.19703933419358 0.0 0.0 0.0
-300.59785706619857 276.54634941003263 1435.0630801029345 3.858320923715424 -4.507499008217048 20.994143117631783 0.5602882947975159 5.633808419738501 0.4448307034663484 -4.231308224375712 -10.726293439428531 3.190704947343175 0.0 0.0 0.0 0.701686622619833 -0.14462745078328926 2.6658778383806 40.03490528658015 6.22168548092281 27.649819803382886 53.01163445618738 7.082841942074958 -37.402545776311214 0.0 0.0 0.0 -4.047088059052827 0.36463781380770444 9.481406049002318 -53.52102714152721 28.314378437602368 -2.5395649987879896 -36.03367277703112 -3.412668491338557 24.667186348226377 0.0 0.0 0.0
-300.64355513733307 276.5098867947272 1434.9714025295075 3.8697213990675743 -4.569578379197554 20.995402988019865 0.546576264230297 5.670935213642207 0.45109145520217686 -4.226865367109958 -10.705518544124494 3.186897754881342 0.0 0.0 0.0 0.6974725038133281 -0.14334235617662958 2.6453976819894236 40.0463890033598 6.219579926471963 27.66064869080961 53.01728601787806 7.085670900222602 -37.406424020719925 0.0 0.0 0.0 -4.059785886649092 0.3652336868846959 9.462103406515647 -53.500291202012875 28.31732279822685 -2.5175601010174287 -36.151584971356144 -3.5611899640027294 24.097515748436095 0.0 0.0 0.0
-300.69523679992653 276.4697547432789 1434.8760260148358 3.878173735914246 -4.629749930070221 20.99510989789369 0.5348096449728382 5.704777106658283 0.45666085652752497 -4.222056470126289 -10.683497772226445 3.182790450364716 0.0 0.0 0.0 0.6932614089152384 -0.14211412443030064 2.6256937933827618 40.05852285917483 6.217378847007381 27.67202154310448 53.02379007614098 7.089292571905706 -37.41161214252936 0.0 0.0 0.0 -4.071026530209913 0.3657466015718563 9.444682490889686 -53.48148842611139 28.320035666386996 -2.4975389554811125 -36.27227496123365 -3.7195658636328646 23.49456478369644 0.0 0.0 0.0
-300.7531612904504 276.42565035260395 1434.7759953616876 3.883600180505543 -4.68704081170094 20.992923533394382 0.5250732798896028 5.7344487647479285 0.4614356132391013 -4.21698236298759 -10.66036103521229 3.1784601641883663 0.0 0.0 0.0 0.6890955097329695 -0.14095843323448584 2.607012253326253 40.07100523245014 6.215040685006902 27.683909403305456 53.0314431421861 7.093802443410351 -37.41820749957693 0.0 0.0 0.0 -4.080772337703805 0.36618107035625197 9.429352641515523 -53.46450926933861 28.322549680716815 -2.4793641424483273 -36.39363336149707 -3.8858622561822793 22.86613439314574 0.0 0.0 0.0
-300.8175989952318 276.37730085737695 1434.6701988985735 3.886015711124088 -4.740529132616704 20.988515212810217 0.5174026877786212 5.759147971022183 0.4653296547573129 -4.211745662902706 -10.636269755634482 3.173986153904659 0.0 0.0 0.0 0.6850099612812582 -0.13988764290023986 2.5895492942742564 40.08349324967058 6.2125106145455 27.69629988892646 53.04056143235096 7.099289642442776 -37.4262883083533 0.0 0.0 0.0 -4.089011953502922 0.36654202912485395 9.416261514098604 -53.44921450191356 28.32490724781926 -2.4628586365464855 -36.51356830322702 -4.057784899134888 22.221119276016843 0.0 0.0 0.0
-300.88885237688123 276.3244687953738 1434.5573606366936 3.8855390885827363 -4.78938992541486 20.98157904918342 0.5117781527016053 5.778199427722241 0.4682794412552508 -4.20644559355011 -10.611413673081975 3.16944593701698 0.0 0.0 0.0 0.6810299699521475 -0.13890972841713722 2.5734342901424174 40.09560986690205 6.209719347903782 27.709203652890995 53.05147459014819 7.105834599830393 -37.43591080615091 0.0 0.0 0.0 -4.095762658437755 0.36683448649404643 9.405479696184472 -53.435438141223386 28.32715983417225 -2.447809319678865 -36.630117302426484 -4.232738249394039 21.569264996723067 0.0 0.0 0.0
-300.9672794349301 276.26695639174613 1434.4360389922335 3.8823990804518442 -4.832934053734215 20.971842852799757 0.5081217028683552 5.791090684947647 0.4702479938864453 -4.201172891660457 -10.58600706713388 3.1649114764552735 0.0 0.0 0.0 0.6771685511560582 -0.13802743350708557 2.558716208342506 40.106952694045276 6.206582447804407 27.72266029049578 53.06451797251976 7.113506873427323 -37.447107178946645 0.0 0.0 0.0 -4.101071649248772 0.3670632162784739 9.396989254572132 -53.422990156758196 28.3293663555219 -2.4339715572635585 -36.74155274129026 -4.407909819819019 20.920860893471346 0.0 0.0 0.0
